/* XPM */
static char *moves_3601697570099[] = {
/* columns rows colors chars-per-pixel */
"45 45 146 2 ",
"   c #E28FC3",
".  c #E48FC6",
"X  c #E391C2",
"o  c #E192C2",
"O  c #E293C3",
"+  c #E490C2",
"@  c #E591C3",
"#  c #E492C3",
"$  c #E191C4",
"%  c #E390C4",
"&  c #E292C5",
"*  c #E191C6",
"=  c #E390C6",
"-  c #E393C6",
";  c #E292C7",
":  c #E490C4",
">  c #E491C5",
",  c #E591C5",
"<  c #E593C4",
"1  c #E692C4",
"2  c #E590C7",
"3  c #E491C7",
"4  c #E592C6",
"5  c #E692C6",
"6  c #E693C7",
"7  c #E793C7",
"8  c #E394C4",
"9  c #E395C5",
"0  c #E294C6",
"q  c #E495C4",
"w  c #E495C5",
"e  c #E494C7",
"r  c #E596C6",
"t  c #E498C7",
"y  c #E393C8",
"u  c #E691C8",
"i  c #E592C8",
"p  c #E691CA",
"a  c #E595C8",
"s  c #E496C8",
"d  c #E595CA",
"f  c #E696CB",
"g  c #E599C8",
"h  c #E698C8",
"j  c #E798C8",
"k  c #E79AC8",
"l  c #E79BC9",
"z  c #E79BCA",
"x  c #E79ECB",
"c  c #E79ECC",
"v  c #E89BC9",
"b  c #E89CCA",
"n  c #E89CCB",
"m  c #E89FCC",
"M  c #E8A1CD",
"N  c #E8A0CE",
"B  c #E8A3CF",
"V  c #E9A6CF",
"C  c #E9A9CE",
"Z  c #E9A4D0",
"A  c #E9A4D1",
"S  c #EBA4D0",
"D  c #E9A6D1",
"F  c #EAA7D0",
"G  c #EAA7D2",
"H  c #EBA8D3",
"J  c #E9ABD2",
"K  c #EBAAD2",
"L  c #ECABD3",
"P  c #E9ADD3",
"I  c #EAACD3",
"U  c #E9ABD4",
"Y  c #EBAFD5",
"T  c #EDACD4",
"R  c #EAB1D4",
"E  c #EBB1D7",
"W  c #ECB0D4",
"Q  c #ECB3D6",
"!  c #EDB4D5",
"~  c #EBB8D7",
"^  c #EDB3D9",
"/  c #EEB6D9",
"(  c #EBB8D9",
")  c #EEB8DA",
"_  c #ECBBDB",
"`  c #EEBDDD",
"'  c #F0B8DB",
"]  c #EEC0DD",
"[  c #EFC1DE",
"{  c #F0C3E0",
"}  c #F1C5E0",
"|  c #F5CBE3",
" . c #F4C9E5",
".. c #F2CFE5",
"X. c #F4CEE5",
"o. c #F5CFE6",
"O. c #F3D2E7",
"+. c #F4D3E8",
"@. c #F4D2EA",
"#. c #F4D7E9",
"$. c #F5D5EA",
"%. c #F5D5EC",
"&. c #F7D8E8",
"*. c #F7DAEC",
"=. c #F7DCED",
"-. c #F7DFED",
";. c #F8DDEE",
":. c #F7E1EE",
">. c #F8E2EF",
",. c #F7E5F3",
"<. c #F8E4F0",
"1. c #F9E4F3",
"2. c #FBE7F3",
"3. c #FAE9F3",
"4. c #FBECF3",
"5. c #F8EBF4",
"6. c #F9ECF5",
"7. c #FAEDF6",
"8. c #FBEEF7",
"9. c #FDEDF7",
"0. c #FBEFF9",
"q. c #FBF2F7",
"w. c #FCF3F6",
"e. c #FBF0F8",
"r. c #FCF1F9",
"t. c #FDF2F8",
"y. c #FCF0FA",
"u. c #FDF4F9",
"i. c #FDF7F9",
"p. c #FCF7FB",
"a. c #FDF7FB",
"s. c #FEF4FC",
"d. c #FCF7FD",
"f. c #FCFAFB",
"g. c #FEFAFB",
"h. c #FDF8FC",
"j. c #FEF8FC",
"k. c #FEF9FD",
"l. c gray99",
"z. c #FEFCFD",
"x. c #FFFCFD",
"c. c #FEFEFC",
"v. c #FFFFFD",
"b. c #FDFDFF",
"n. c #FFFDFE",
"m. c white",
/* pixels */
"> > > i >   > > > > > > > > > > > > & > > > > > > > > > @ > > > > > > > > > > > > > > > > ",
"> > > > > > > > > > > 7 > > > > > > > > > & > > & > @ > @ > q > X X > i q > > > > > > > > ",
"> > > & > & > i > > > > > > > > & > > > > > > > > > > > > > y > > > @ > > >   > > > > > > ",
"> > > > & > > @ > > & & > & > > @ & > > > & > & & & > & @ > > i > > 0 . > > > > > > > > > ",
"> > > > > & > i > > i & > > i > i > > i > . > > > > > i & & X O > > . > > > > @ > > > > > ",
"> > > > q L A > > v H l > > > q T A & > A H i > v P b 0 L H T P R @ & i H R l > > > > > > ",
"> > > i > p.3.> >  .m.H > > ` p.;.>.p.A P h.q > H p.d > h.*.#.%.*.> q 4.=.+.9.#.> > > > > ",
"> > > X > d.0.( v p.h.T > n g.M > > / w.> 2.[ > ;.[ X & m.^ Z S > > A m.~ V h b > > > > > ",
"> > > > > p./ r.#.} r.L > W 7.@ > i t m.q W r.M h.h i > m.<.;.#.> > > o.7.p.m...> > > > > ",
"> > > > & p.n >.w.q y.L > t p./ > q o.<.i > q.y.o.> > > h.A > & d > > ! . i ' r.> > > > > ",
"> > q > q g.S A _ d h.R > @ H <.r.p.#.v > > [ m.M > & q m.d.d.p.h.q l ,.r.7.5.^ > > > > > ",
"> > > > i @ q > > & > & > > & > > . y > & i i i @ & @ > . > 7 > d > & @ > > > @ > > > > > ",
"> > q > & & y > @ > > > > > > > @ > @ > > > > > i > > > X > > > > q > > X > & & > > > > > ",
"> @ > > i > X > > > @ > > & > & > > y > > > > i > i > > @ > > > > > > > > > > > > > > > > ",
"> > > i > > > > > > > > > @ > > > X > > > > > > > > & > > > > > > > > > > > > > > > > > > ",
"> > > > i > > > > > > i > > > > > > @ > > > & & > i > @ i > > > > > > > i > > > > > > > > ",
"> > > > > > > > > > > > > > > > > > > > > > > > > > > > > > > > > > > > > > > > > > > > > ",
"> > > > > > > > > > > > > > > > > > > > > > > > > > > > > > > > > > > > > > > > > > > > > ",
"> > > > > > > > > > > > > > > > > > > > > > > > > > > > > > > > > > > > > > > > > > > > > ",
"> > > > > > > > > > > > > > > > > > > > > > > > > > > > > > > > > > > > > > > > > > > > > ",
"> > > > > > > > > > > > > > > > > > > > > > > > > > > > > > > > > > > > > > > > > > > > > ",
"> > > > > > > > > > > > > > > > > > > > > > > > > > > > > > > > > > > > > > > > > > > > > ",
"> > > > > > > > > > > > > > > > > > > > > > > > > > > > > > > > > > > > > > > > > > > > > ",
"> > > > > > > > > > > > > > > > > > > > > > > > > > > > > > > > > > > > > > > > > > > > > ",
"> > > > > > > > > > > > > > > > > > > > > > > > > > > > > > > > > > > > > > > > > > > > > ",
"> > > > > > > > > > > > > > > > > > > > > > > > > > > > > > > > > > > > > > > > > > > > > ",
"> > > > > > > > > > > > > > > > > > > > > > > > > > > > > > > > > > > > > > > > > > > > > ",
"> > > > > > > > > > > > > > > > > > > > > > > > > > > > > > > > > > > > > > > > > > > > > ",
"> > > > > > > > > > > > > > > > > > > > > > > > > > > > > > > > > > > > > > > > > > > > > ",
"> > > > > > > > > > > > > > > > > > > > > > > > > > > > > > > > > > > > > > > > > > > > > ",
"> > > > > > > > > > > > > > > > > > > > > > > > > > > > > > > > > > > > > > > > > > > > > ",
"> > > > > > > > > > > > > > > > > > > > > > > > > > > > > > > > > > > > > > > > > > > > > ",
"> > > > > > > > > > > > > > > > > > > > > > > > > > > > > > > > > > > > > > > > > > > > > ",
"> > > > > > > > > > > > > > > > > > > > > > > > > > > > > > > > > > > > > > > > > > > > > ",
"> > > > > > > > > > > > > > > > > > > > > > > > > > > > > > > > > > > > > > > > > > > > > ",
"> > > > > > > > > > > > > > > > > > > > > > > > > > > > > > > > > > > > > > > > > > > > > ",
"> > > > > > > > > > > > > > > > > > > > > > > > > > > > > > > > > > > > > > > > > > > > > ",
"> > > > > > > > > > > > > > > > > > > > > > > > > > > > > > > > > > > > > > > > > > > > > ",
"> > > > > > > > > > > > > > > > > > > > > > > > > > > > > > > > > > > > > > > > > > > > > ",
"> > > > > > > > > > > > > > > > > > > > > > > > > > > > > > > > > > > > > > > > > > > > > ",
"> > > > > > > > > > > > > > > > > > > > > > > > > > > > > > > > > > > > > > > > > > > > > ",
"> > > > > > > > > > > > > > > > > > > > > > > > > > > > > > > > > > > > > > > > > > > > > ",
"> > > > > > > > > > > > > > > > > > > > > > > > > > > > > > > > > > > > > > > > > > > > > ",
"> > > > > > > > > > > > > > > > > > > > > > > > > > > > > > > > > > > > > > > > > > > > > ",
"> > > > > > > > > > > > > > > > > > > > > > > > > > > > > > > > > > > > > > > > > > > > > "
};
